<?xml version="1.0" encoding="utf-8"?>
<!-- Generator: Adobe Illustrator 19.0.1, SVG Export Plug-In . SVG Version: 6.00 Build 0)  -->
<svg version="1.1" id="Calque_1" xmlns="http://www.w3.org/2000/svg" xmlns:xlink="http://www.w3.org/1999/xlink" width="16px" height="16px" x="0px" y="0px"
	 viewBox="0 0 33.9 33.9" enable-background="new 0 0 33.9 33.9" xml:space="preserve">
<g>
	<g>
		<path fill="#C1272D" d="M16.9,9C12.6,9,9,12.6,9,16.9c0,4.4,3.5,7.9,7.9,7.9c4.4,0,7.9-3.5,7.9-7.9C24.9,12.6,21.3,9,16.9,9z"/>
		<path fill="#C1272D" d="M29.3,15.8C28.7,9.9,24,5.2,18.1,4.6V0h-2.3v4.6C9.9,5.2,5.2,9.9,4.6,15.8H0v2.3h4.6
			C5.2,24,9.9,28.7,15.8,29.3v4.6h2.3v-4.6C24,28.7,28.7,24,29.3,18.1h4.6v-2.3L29.3,15.8L29.3,15.8z M16.9,27.1
			c-5.6,0-10.2-4.6-10.2-10.2c0-5.6,4.6-10.2,10.2-10.2c5.6,0,10.2,4.6,10.2,10.2C27.1,22.6,22.6,27.1,16.9,27.1z"/>
	</g>
</g>
</svg>
